<svg xmlns="http://www.w3.org/2000/svg" xmlns:xlink="http://www.w3.org/1999/xlink" id="Layer_1" x="0px" y="0px" viewBox="0 0 564.2 1651.7" style="enable-background:new 0 0 564.2 1651.7;" xml:space="preserve">
<g>
	<path d="M201.8,39C406-29.3,582.9,184.3,482.9,370.4c35.7-0.8,51.8,21,51,43.6c-1.8,39.9-44.2,40.5-45.2,40.8   c0.2,99.7,0.1,880,0.1,962.3c54.6-4.3,66,84.7-3.5,83.9c-34.7,36.1-79.5,67.9-158.4,76.7c-6.3,64.8-80.1,59.4-90.6,12   c-0.9-3.9-0.4-8-1.7-11.8c-77.2-8.6-122.1-37.6-160.7-76.8c-58.1,1.4-56.3-85.5-1-84c-0.1-321,0.1-642-0.1-963   c-54.5,1.8-57.6-83,1-83.8C7.8,246.4,61.2,90.4,201.8,39 M123.8,109.6c-70.4,72.3-77.9,182.5-28.1,261.6   c121.8-0.2,243.6-0.1,365.4,0c92.4-147.8-25-342.1-201.1-326.6C208.7,48.8,159.3,72.3,123.8,109.6 M64,390.1   c-25.4,9.4-16.7,46.9,8.5,45.7c442.8-0.1,439.4,7.5,442.8-20.4c1.6-10-4.3-20.6-13.6-24.7C494.3,387.1,69.5,387.8,64,390.1    M96.2,641c0,54.1,0.1,108.2,0,162.2c0,0,342.7-149.8,369.2-161.2c0.1-54.2,0-108.3,0.1-162.5C342.4,533.4,219.3,587.4,96.2,641    M406.2,880.3c-103.3,45.1-206.6,90.4-310,135.5c0,1-0.2,134.1,0.4,142.7c8.5-5,364.9-160.1,368.8-161.7   c-0.1-47.5,0.3-95-0.1-142.5C445.7,863.3,425.9,871.6,406.2,880.3 M96.2,1370.4c-0.2,9.9,0.1,19.9-0.1,29.8   c80.3-0.1,160.5,0.1,240.8-0.1c42.7-18.8,85.5-37.7,128.4-56.1c0.1-45,0-90,0.1-135C342.4,1262.9,219.4,1316.9,96.2,1370.4    M71.6,1435.4c-31.2,0.4-29.5,48.5,0.8,47.2c457.6,0,427.9,3.2,437.7-8.6c11.9-13.7,3.6-39.5-20.9-38.7   C350,1435.4,210.8,1435.2,71.6,1435.4 M96.3,1497.9c78.9,86.1,287.1,86,366.6,0C340.7,1497.9,218.5,1497.8,96.3,1497.9    M254.1,1573.3c-4.8,50.8,63,39.9,53.3-0.1C289.7,1573.7,271.9,1573.8,254.1,1573.3z"></path>
	<path d="M265.3,71.7c-66.3,55.9-87,124.3-56.7,209.6c-53.9-1.9-72.2,32-87.8,55.9C76.8,205.9,167.6,83.9,265.3,71.7z"></path>
</g>
</svg>